<?xml version="1.0" standalone="no"?>
<svg xmlns:xlink="http://www.w3.org/1999/xlink" id="wave" style="transform:rotate(0deg); transition: 0.3s" viewBox="0 0 1440 150" version="1.1" xmlns="http://www.w3.org/2000/svg"><defs><linearGradient id="sw-gradient-0" x1="0" x2="0" y1="1" y2="0"><stop stop-color="rgba(243, 106, 62, 1)" offset="0%"/><stop stop-color="rgba(255, 179, 11, 1)" offset="100%"/></linearGradient></defs><path style="transform:translate(0, 0px); opacity:1" fill="#ffffff" d="M0,30L80,47.5C160,65,320,100,480,95C640,90,800,45,960,40C1120,35,1280,70,1440,85C1600,100,1760,95,1920,77.5C2080,60,2240,30,2400,20C2560,10,2720,20,2880,22.5C3040,25,3200,20,3360,15C3520,10,3680,5,3840,2.5C4000,0,4160,0,4320,15C4480,30,4640,60,4800,67.5C4960,75,5120,60,5280,47.5C5440,35,5600,25,5760,32.5C5920,40,6080,65,6240,62.5C6400,60,6560,30,6720,25C6880,20,7040,40,7200,47.5C7360,55,7520,50,7680,42.5C7840,35,8000,25,8160,32.5C8320,40,8480,65,8640,65C8800,65,8960,40,9120,47.5C9280,55,9440,95,9600,115C9760,135,9920,135,10080,112.5C10240,90,10400,45,10560,25C10720,5,10880,10,11040,25C11200,40,11360,65,11440,77.5L11520,90L11520,150L11440,150C11360,150,11200,150,11040,150C10880,150,10720,150,10560,150C10400,150,10240,150,10080,150C9920,150,9760,150,9600,150C9440,150,9280,150,9120,150C8960,150,8800,150,8640,150C8480,150,8320,150,8160,150C8000,150,7840,150,7680,150C7520,150,7360,150,7200,150C7040,150,6880,150,6720,150C6560,150,6400,150,6240,150C6080,150,5920,150,5760,150C5600,150,5440,150,5280,150C5120,150,4960,150,4800,150C4640,150,4480,150,4320,150C4160,150,4000,150,3840,150C3680,150,3520,150,3360,150C3200,150,3040,150,2880,150C2720,150,2560,150,2400,150C2240,150,2080,150,1920,150C1760,150,1600,150,1440,150C1280,150,1120,150,960,150C800,150,640,150,480,150C320,150,160,150,80,150L0,150Z"/></svg>